{
  "source": "C:\\Users\\Peter\\Desktop\\stuff\\MIUN\\quantitative_research\\video_compression\\videos\\BVI-HD\\BVI-HD_CDVL_videos\\ORIG\\KineticFastPainting_1920x1080_60fps.mp4",
  "output": "C:\\Users\\Peter\\Desktop\\stuff\\MIUN\\quantitative_research\\video_compression\\compressed_videos\\BVI-HD\\av1\\1.5\\KineticFastPainting_1920x1080_60fps_av1.mkv",
  "codec": "av1",
  "ok": "Input #0, mov,mp4,m4a,3gp,3g2,mj2, from 'C:\\Users\\Peter\\Desktop\\stuff\\MIUN\\quantitative_research\\video_compression\\videos\\BVI-HD\\BVI-HD_CDVL_videos\\ORIG\\KineticFastPainting_1920x1080_60fps.mp4':\n  Metadata:\n    major_brand     : isom\n    minor_version   : 512\n    compatible_brands: isomiso2avc1mp41\n    encoder         : Lavf54.28.101\n  Duration: 00:00:05.00, start: 0.000000, bitrate: 477980 kb/s\n  Stream #0:0[0x1](und): Video: h264 (High 4:4:4 Predictive) (avc1 / 0x31637661), yuv420p(progressive), 1920x1080, 477974 kb/s, 60 fps, 60 tbr, 60 tbn (default)\n    Metadata:\n      handler_name    : VideoHandler\n      vendor_id       : [0][0][0][0]\n[out#0/matroska @ 0000020793d69000] Codec AVOption b:a (set bitrate (in bits/s)) has not been used for any stream. The most likely reason is either wrong type (e.g. a video option with no video streams) or that it is a private option of some decoder which was not actually used for any stream.\nStream mapping:\n  Stream #0:0 -> #0:0 (h264 (native) -> av1 (libsvtav1))\nPress [q] to stop, [?] for help\nSvt[info]: -------------------------------------------\nSvt[info]: SVT [version]:\tSVT-AV1 Encoder Lib v3.1.0-19-g6ecfe8ec\nSvt[info]: SVT [build]  :\tGCC 15.2.0\t 64 bit\nSvt[info]: LIB Build date: Aug 17 2025 11:37:13\nSvt[info]: -------------------------------------------\nSvt[info]: Level of Parallelism: 5\nSvt[info]: Number of PPCS 93\nSvt[info]: [asm level on system : up to avx2]\nSvt[info]: [asm level selected : up to avx2]\nSvt[info]: -------------------------------------------\nSvt[info]: SVT [config]: main profile\ttier (auto)\tlevel (auto)\nSvt[info]: SVT [config]: width / height / fps numerator / fps denominator \t\t: 1920 / 1080 / 60 / 1\nSvt[info]: SVT [config]: bit-depth / color format \t\t\t\t\t: 8 / YUV420\nSvt[info]: SVT [config]: preset / tune / pred struct \t\t\t\t\t: 4 / PSNR / random access\nSvt[info]: SVT [config]: gop size / mini-gop size / key-frame type \t\t\t: 321 / 16 / key frame\nSvt[info]: SVT [config]: BRC mode / target bitrate (kbps)\t\t\t\t: VBR / 1500 \nSvt[info]: SVT [config]: AQ mode / Variance Boost \t\t\t\t\t: 2 / 0\nSvt[info]: SVT [config]: sharpness / luminance-based QP bias \t\t\t\t: 0 / 0\nSvt[info]: SVT [config]: QP scale compress strength \t\t\t\t\t: 0\nSvt[info]: -------------------------------------------\nOutput #0, matroska, to 'C:\\Users\\Peter\\Desktop\\stuff\\MIUN\\quantitative_research\\video_compression\\compressed_videos\\BVI-HD\\av1\\1.5\\KineticFastPainting_1920x1080_60fps_av1.mkv':\n  Metadata:\n    major_brand     : isom\n    minor_version   : 512\n    compatible_brands: isomiso2avc1mp41\n    encoder         : Lavf62.3.100\n  Stream #0:0(und): Video: av1 (AV01 / 0x31305641), yuv420p(tv, progressive), 1920x1080, q=2-31, 1500 kb/s, 60 fps, 1k tbn (default)\n    Metadata:\n      encoder         : Lavc62.11.100 libsvtav1\n      handler_name    : VideoHandler\n      vendor_id       : [0][0][0][0]\n    Side data:\n      cpb: bitrate max/min/avg: 0/0/1500000 buffer size: 1500000 vbv_delay: N/A\nframe=    0 fps=0.0 q=0.0 size=       0KiB time=N/A bitrate=N/A speed=N/A elapsed=0:00:01.07    \nframe=    0 fps=0.0 q=0.0 size=       0KiB time=N/A bitrate=N/A speed=N/A elapsed=0:00:01.60    \nframe=    0 fps=0.0 q=0.0 size=       0KiB time=N/A bitrate=N/A speed=N/A elapsed=0:00:02.23    \nframe=    0 fps=0.0 q=0.0 size=       0KiB time=N/A bitrate=N/A speed=N/A elapsed=0:00:02.84    \nframe=    0 fps=0.0 q=0.0 size=       0KiB time=N/A bitrate=N/A speed=N/A elapsed=0:00:03.41    \nframe=    0 fps=0.0 q=0.0 size=       0KiB time=N/A bitrate=N/A speed=N/A elapsed=0:00:03.95    \nframe=    0 fps=0.0 q=0.0 size=       0KiB time=N/A bitrate=N/A speed=N/A elapsed=0:00:04.54    \nframe=    0 fps=0.0 q=0.0 size=       0KiB time=N/A bitrate=N/A speed=N/A elapsed=0:00:05.12    \nframe=    1 fps=0.2 q=44.0 size=       1KiB time=00:00:00.00 bitrate=N/A speed=   0x elapsed=0:00:05.67    \nframe=    1 fps=0.2 q=44.0 size=       1KiB time=00:00:00.00 bitrate=N/A speed=   0x elapsed=0:00:06.26    \nframe=    2 fps=0.3 q=59.0 size=       1KiB time=00:00:00.01 bitrate= 341.8kbits/s speed=0.00244x elapsed=0:00:06.83    \nframe=    7 fps=0.9 q=57.0 size=       1KiB time=00:00:00.10 bitrate=  57.0kbits/s speed=0.0136x elapsed=0:00:07.36    \nframe=    9 fps=1.1 q=52.0 size=       1KiB time=00:00:00.13 bitrate=  42.7kbits/s speed=0.0168x elapsed=0:00:07.93    \nframe=   12 fps=1.4 q=58.0 size=       1KiB time=00:00:00.18 bitrate=  31.1kbits/s speed=0.0216x elapsed=0:00:08.50    \nframe=   15 fps=1.7 q=55.0 size=       1KiB time=00:00:00.23 bitrate=  24.4kbits/s speed=0.0257x elapsed=0:00:09.07    \nframe=   19 fps=2.0 q=57.0 size=       1KiB time=00:00:00.30 bitrate=  19.0kbits/s speed=0.0312x elapsed=0:00:09.60    \nframe=   22 fps=2.2 q=59.0 size=       1KiB time=00:00:00.35 bitrate=  16.3kbits/s speed=0.0346x elapsed=0:00:10.12    \nframe=   24 fps=2.3 q=59.0 size=       1KiB time=00:00:00.38 bitrate=  14.9kbits/s speed=0.036x elapsed=0:00:10.64    \nframe=   28 fps=2.5 q=59.0 size=       1KiB time=00:00:00.45 bitrate=  12.7kbits/s speed=0.0403x elapsed=0:00:11.17    \nframe=   34 fps=2.9 q=60.0 size=       1KiB time=00:00:00.53 bitrate=  10.7kbits/s speed=0.0454x elapsed=0:00:11.73    \nframe=   37 fps=3.0 q=57.0 size=       1KiB time=00:00:00.60 bitrate=   9.5kbits/s speed=0.0488x elapsed=0:00:12.29    \nframe=   39 fps=3.0 q=59.0 size=       1KiB time=00:00:00.63 bitrate=   9.0kbits/s speed=0.0494x elapsed=0:00:12.83    \nframe=   42 fps=3.1 q=60.0 size=       1KiB time=00:00:00.68 bitrate=   8.3kbits/s speed=0.0508x elapsed=0:00:13.44    \nframe=   47 fps=3.4 q=58.0 size=       1KiB time=00:00:00.75 bitrate=   7.6kbits/s speed=0.0535x elapsed=0:00:14.02    \nframe=   51 fps=3.5 q=60.0 size=       1KiB time=00:00:00.83 bitrate=   6.8kbits/s speed=0.0571x elapsed=0:00:14.58    \nframe=   55 fps=3.6 q=56.0 size=       1KiB time=00:00:00.90 bitrate=   6.3kbits/s speed=0.0596x elapsed=0:00:15.10    \nframe=   59 fps=3.8 q=58.0 size=       1KiB time=00:00:00.96 bitrate=   5.9kbits/s speed=0.0618x elapsed=0:00:15.65    \nframe=   64 fps=3.9 q=61.0 size=       1KiB time=00:00:01.03 bitrate=   5.5kbits/s speed=0.0635x elapsed=0:00:16.26    \nframe=   68 fps=4.0 q=61.0 size=       1KiB time=00:00:01.11 bitrate=   5.1kbits/s speed=0.0664x elapsed=0:00:16.81    \nframe=   71 fps=4.1 q=57.0 size=       1KiB time=00:00:01.16 bitrate=   4.9kbits/s speed=0.0673x elapsed=0:00:17.34    \nframe=   75 fps=4.2 q=59.0 size=       1KiB time=00:00:01.23 bitrate=   4.6kbits/s speed=0.069x elapsed=0:00:17.88    \nframe=   80 fps=4.3 q=61.0 size=       1KiB time=00:00:01.31 bitrate=   4.3kbits/s speed=0.0714x elapsed=0:00:18.44    \nframe=   84 fps=4.4 q=61.0 size=       1KiB time=00:00:01.38 bitrate=   4.1kbits/s speed=0.0729x elapsed=0:00:18.98    \nframe=   87 fps=4.5 q=57.0 size=       1KiB time=00:00:01.43 bitrate=   4.0kbits/s speed=0.0734x elapsed=0:00:19.53    \nframe=   91 fps=4.5 q=59.0 size=       1KiB time=00:00:01.50 bitrate=   3.8kbits/s speed=0.0745x elapsed=0:00:20.13    \nframe=   98 fps=4.7 q=62.0 size=       1KiB time=00:00:01.60 bitrate=   3.6kbits/s speed=0.0774x elapsed=0:00:20.67    \nframe=  102 fps=4.8 q=61.0 size=       1KiB time=00:00:01.68 bitrate=   3.4kbits/s speed=0.0793x elapsed=0:00:21.21    \nframe=  106 fps=4.9 q=61.0 size=       1KiB time=00:00:01.73 bitrate=   3.3kbits/s speed=0.0796x elapsed=0:00:21.77    \nframe=  110 fps=4.9 q=61.0 size=       1KiB time=00:00:01.81 bitrate=   3.1kbits/s speed=0.0813x elapsed=0:00:22.34    \nframe=  117 fps=5.1 q=60.0 size=       1KiB time=00:00:01.91 bitrate=   3.0kbits/s speed=0.0838x elapsed=0:00:22.87    \nframe=  120 fps=5.1 q=62.0 size=       1KiB time=00:00:01.98 bitrate=   2.9kbits/s speed=0.0847x elapsed=0:00:23.42    \nframe=  126 fps=5.3 q=62.0 size=       1KiB time=00:00:02.06 bitrate=   2.8kbits/s speed=0.0862x elapsed=0:00:23.96    \nframe=  131 fps=5.3 q=60.0 size=       1KiB time=00:00:02.16 bitrate=   2.6kbits/s speed=0.0883x elapsed=0:00:24.52    \nframe=  134 fps=5.3 q=61.0 size=       1KiB time=00:00:02.21 bitrate=   2.6kbits/s speed=0.0884x elapsed=0:00:25.07    \nframe=  136 fps=5.3 q=61.0 size=       1KiB time=00:00:02.25 bitrate=   2.5kbits/s speed=0.0879x elapsed=0:00:25.59    \nframe=  141 fps=5.4 q=56.0 size=       1KiB time=00:00:02.33 bitrate=   2.4kbits/s speed=0.0893x elapsed=0:00:26.11    \nframe=  147 fps=5.5 q=61.0 size=       1KiB time=00:00:02.43 bitrate=   2.3kbits/s speed=0.0912x elapsed=0:00:26.66    \nframe=  151 fps=5.5 q=57.0 size=       1KiB time=00:00:02.50 bitrate=   2.3kbits/s speed=0.0918x elapsed=0:00:27.23    \nframe=  155 fps=5.6 q=60.0 size=       1KiB time=00:00:02.56 bitrate=   2.2kbits/s speed=0.0923x elapsed=0:00:27.81    \nframe=  162 fps=5.7 q=60.0 size=       1KiB time=00:00:02.68 bitrate=   2.1kbits/s speed=0.0945x elapsed=0:00:28.39    \nframe=  165 fps=5.7 q=59.0 size=       1KiB time=00:00:02.73 bitrate=   2.1kbits/s speed=0.0945x elapsed=0:00:28.91    \nframe=  167 fps=5.7 q=56.0 size=       1KiB time=00:00:02.76 bitrate=   2.1kbits/s speed=0.094x elapsed=0:00:29.43    \nframe=  171 fps=5.7 q=58.0 size=       1KiB time=00:00:02.83 bitrate=   2.0kbits/s speed=0.0945x elapsed=0:00:29.98    \nframe=  177 fps=5.8 q=51.0 size=       1KiB time=00:00:02.93 bitrate=   1.9kbits/s speed=0.0959x elapsed=0:00:30.57    \nframe=  181 fps=5.8 q=58.0 size=       1KiB time=00:00:03.00 bitrate=   1.9kbits/s speed=0.0965x elapsed=0:00:31.09    \nframe=  184 fps=5.8 q=61.0 size=       1KiB time=00:00:03.03 bitrate=   1.9kbits/s speed=0.0959x elapsed=0:00:31.62    \nframe=  188 fps=5.8 q=62.0 size=       1KiB time=00:00:03.10 bitrate=   1.8kbits/s speed=0.0963x elapsed=0:00:32.20    \nframe=  195 fps=5.9 q=61.0 size=       1KiB time=00:00:03.23 bitrate=   1.8kbits/s speed=0.0985x elapsed=0:00:32.82    \nframe=  199 fps=6.0 q=57.0 size=       1KiB time=00:00:03.30 bitrate=   1.7kbits/s speed=0.0987x elapsed=0:00:33.42    \nframe=  205 fps=6.0 q=57.0 size=       1KiB time=00:00:03.40 bitrate=   1.7kbits/s speed=0.0999x elapsed=0:00:34.04    \nframe=  209 fps=6.0 q=49.0 size=       1KiB time=00:00:03.46 bitrate=   1.6kbits/s speed= 0.1x elapsed=0:00:34.63    \nframe=  217 fps=6.2 q=57.0 size=       1KiB time=00:00:03.56 bitrate=   1.6kbits/s speed=0.101x elapsed=0:00:35.17    \nframe=  221 fps=6.2 q=57.0 size=       1KiB time=00:00:03.63 bitrate=   1.6kbits/s speed=0.102x elapsed=0:00:35.75    \nframe=  223 fps=6.1 q=59.0 size=       1KiB time=00:00:03.70 bitrate=   1.5kbits/s speed=0.102x elapsed=0:00:36.36    \nframe=  229 fps=6.2 q=59.0 size=       1KiB time=00:00:03.80 bitrate=   1.5kbits/s speed=0.103x elapsed=0:00:36.92    \nframe=  233 fps=6.2 q=57.0 size=       1KiB time=00:00:03.86 bitrate=   1.5kbits/s speed=0.103x elapsed=0:00:37.46    \nframe=  233 fps=6.1 q=57.0 size=       1KiB time=00:00:03.86 bitrate=   1.5kbits/s speed=0.102x elapsed=0:00:38.02    \nframe=  237 fps=6.1 q=56.0 size=       1KiB time=00:00:03.93 bitrate=   1.4kbits/s speed=0.102x elapsed=0:00:38.64    \nframe=  241 fps=6.1 q=51.0 size=       1KiB time=00:00:04.00 bitrate=   1.4kbits/s speed=0.102x elapsed=0:00:39.28    \nframe=  245 fps=6.1 q=59.0 size=       1KiB time=00:00:04.06 bitrate=   1.4kbits/s speed=0.102x elapsed=0:00:39.85    \nframe=  249 fps=6.2 q=56.0 size=       1KiB time=00:00:04.13 bitrate=   1.4kbits/s speed=0.102x elapsed=0:00:40.40    \nframe=  253 fps=6.2 q=57.0 size=       1KiB time=00:00:04.20 bitrate=   1.4kbits/s speed=0.102x elapsed=0:00:41.04    \nframe=  255 fps=6.1 q=59.0 size=       1KiB time=00:00:04.23 bitrate=   1.3kbits/s speed=0.102x elapsed=0:00:41.65    \nframe=  261 fps=6.2 q=59.0 size=       1KiB time=00:00:04.30 bitrate=   1.3kbits/s speed=0.102x elapsed=0:00:42.29    \nframe=  263 fps=6.1 q=57.0 size=       1KiB time=00:00:04.36 bitrate=   1.3kbits/s speed=0.102x elapsed=0:00:42.93    \nframe=  265 fps=6.1 q=57.0 size=       1KiB time=00:00:04.40 bitrate=   1.3kbits/s speed=0.101x elapsed=0:00:43.53    \nframe=  269 fps=6.1 q=58.0 size=       1KiB time=00:00:04.46 bitrate=   1.3kbits/s speed=0.101x elapsed=0:00:44.12    \nframe=  271 fps=6.0 q=60.0 size=       1KiB time=00:00:04.50 bitrate=   1.3kbits/s speed= 0.1x elapsed=0:00:44.83    \nframe=  277 fps=6.1 q=60.0 size=       1KiB time=00:00:04.60 bitrate=   1.2kbits/s speed=0.101x elapsed=0:00:45.45    \nframe=  281 fps=6.1 q=58.0 size=       1KiB time=00:00:04.66 bitrate=   1.2kbits/s speed=0.101x elapsed=0:00:46.08    \nframe=  285 fps=6.1 q=60.0 size=       1KiB time=00:00:04.73 bitrate=   1.2kbits/s speed=0.101x elapsed=0:00:46.68    \nframe=  295 fps=6.2 q=60.0 size=       1KiB time=00:00:04.90 bitrate=   1.2kbits/s speed=0.104x elapsed=0:00:47.25    \n[out#0/matroska @ 0000020793d69000] video:964KiB audio:0KiB subtitle:0KiB other streams:0KiB global headers:0KiB muxing overhead: 0.215390%\nframe=  300 fps=6.3 q=60.0 Lsize=     966KiB time=00:00:04.98 bitrate=1588.7kbits/s speed=0.105x elapsed=0:00:47.35    \n",
  "seconds": 48.206613302230835,
  "probe_out": {}
}